<svg width="500" height="500" viewBox="0 0 500 500" fill="none" xmlns="http://www.w3.org/2000/svg">
<path d="M93.75 31.25H62.5V0H93.75V31.25ZM156.25 31.25H125V0H156.25V31.25ZM218.75 31.25H187.5V0H218.75V31.25ZM281.25 93.75H250V62.5H281.25V93.75ZM343.75 156.25H312.5V125H343.75V156.25ZM406.25 218.75H375V187.5H406.25V218.75ZM281.25 31.25H250V0H281.25V31.25ZM375 93.75H343.75V62.5H375V93.75ZM375 125V93.75H406.25V125H375ZM437.5 187.5H468.75V218.75H437.5V187.5ZM156.25 93.75H125V62.5H156.25V93.75ZM218.75 93.75H187.5V62.5H218.75V93.75ZM281.25 156.25H250V125H281.25V156.25ZM343.75 218.75H312.5V187.5H343.75V218.75ZM218.75 156.25H187.5V125H218.75V156.25ZM281.25 218.75H250V187.5H281.25V218.75ZM343.75 281.25H312.5V250H343.75V281.25ZM62.5 93.75V62.5H93.75V93.75H62.5ZM93.75 125V93.75H125V125H93.75ZM125 156.25V125H156.25V156.25H125ZM156.25 187.5V156.25H187.5V187.5H156.25ZM187.5 218.75V187.5H218.75V218.75H187.5ZM218.75 250V218.75H250V250H218.75ZM250 281.25V250H281.25V281.25H250ZM281.25 312.5V281.25H312.5V312.5H281.25ZM312.5 343.75V312.5H343.75V343.75H312.5ZM343.75 375V343.75H375V375H343.75ZM375 406.25V375H406.25V406.25H375ZM406.25 406.25H437.5V437.5H468.75V468.75H0V0H31.25V31.25H62.5V62.5H31.25V437.5H406.25V406.25ZM437.5 375H468.75V406.25H437.5V375ZM437.5 312.5H468.75V343.75H437.5V312.5ZM437.5 250H468.75V281.25H437.5V250ZM406.25 343.75H375V312.5H406.25V343.75ZM375 250H406.25V281.25H375V250ZM375 31.25H343.75V0H375V31.25ZM437.5 93.75H468.75V125H437.5V93.75ZM468.75 0V31.25H437.5V0H468.75Z" fill="url(#paint0_linear_3_2)"/>
<defs>
<linearGradient id="paint0_linear_3_2" x1="234.375" y1="0" x2="234.375" y2="468.75" gradientUnits="userSpaceOnUse">
<stop stop-color="#FF070C"/>
<stop offset="1" stop-color="#9100FF"/>
</linearGradient>
</defs>
</svg>
